<?xml version="1.0" encoding="UTF-8"?>
<svg id="Layer_2" data-name="Layer 2" xmlns="http://www.w3.org/2000/svg" viewBox="0 0 705.15 155.51">
  <defs>
    <style>
      .cls-1 {
        fill: #f7b721;
      }

      .cls-1, .cls-2 {
        stroke-width: 0px;
      }

      .cls-2 {
        fill: #fff;
      }
    </style>
  </defs>
  <g id="Securicore">
    <g>
      <g>
        <g>
          <path class="cls-1" d="M94.01,58.09c9.63,1.15,18.62,6.63,23.88,15.64,8.89,15.25,3.72,34.89-11.53,43.78-15.25,8.89-34.89,3.72-43.78-11.53-5.25-9-5.59-19.53-1.86-28.47l-.27-.16-9.11-5.59c-5.71,12.31-5.53,27.13,1.81,39.72,11.92,20.44,38.25,27.38,58.69,15.45,20.44-11.92,27.38-38.25,15.45-58.69-7.34-12.59-20.15-20.05-33.69-21.14l.38,10.69v.31Z"/>
          <path class="cls-1" d="M146.96,56.77c-11.71-20.08-32.5-31.63-54.16-32.51l.49,13.62v.19c16.75,1.02,32.7,10.1,41.77,25.64,14.41,24.72,6.03,56.55-18.69,70.96-24.72,14.41-56.55,6.03-70.96-18.68-9.06-15.54-9.11-33.9-1.76-48.96l-.17-.1-11.61-7.13c-9.9,19.29-10.08,43.07,1.63,63.14,18.24,31.28,58.53,41.89,89.81,23.65,31.28-18.24,41.89-58.53,23.65-89.81Z"/>
        </g>
        <g>
          <path class="cls-2" d="M34.01,39.64c.85-.96,1.74-1.9,2.65-2.82-.91.92-1.79,1.86-2.65,2.82Z"/>
          <path class="cls-2" d="M86.88,58.03h0l-.39-10.91c-2.17.18-4.34.54-6.47,1.07-.3.07-.6.14-.89.22-.19.05-.37.11-.56.16-.3.09-.61.17-.91.26.3-.09.61-.17.91-.26-.42.12-.84.24-1.26.37.11-.04.23-.08.34-.11-.11.04-.23.08-.34.11-.13.04-.25.08-.38.13-.49.16-.98.33-1.46.51-.07.03-.14.05-.21.08-.56.21-1.11.43-1.67.66,0,0-.01,0-.02,0-1.68.71-3.34,1.53-4.95,2.47-.05.03-.1.06-.15.09-.58.34-1.15.69-1.71,1.05-.13.09-.26.18-.39.26-.47.31-.93.63-1.39.96-.04.03-.07.05-.11.08.04-.03.07-.05.11-.08-1.32.95-2.57,1.98-3.77,3.08.09-.08.17-.16.26-.25-.09.08-.17.16-.26.25-.23.21-.46.42-.68.64-.38.37-.76.74-1.13,1.12l-8.46-4.03c.46-.54.94-1.06,1.42-1.58.72-.77,1.48-1.51,2.25-2.25-.77.73-1.53,1.47-2.25,2.25,8.74-9.35,21.05-15.32,33.8-16.25h0s0,0,0,0l-.49-13.77c-5.06.31-10.07,1.27-14.92,2.79.13-.04.25-.08.38-.12-.13.04-.25.08-.38.12-.25.08-.5.16-.74.24-.42.13-.83.27-1.24.42-.03.01-.06.02-.09.03-.37.13-.74.26-1.11.39.37-.14.74-.26,1.11-.39-6.96,2.44-13.53,6.05-19.31,10.63.19-.15.37-.3.55-.44-.19.15-.37.3-.55.44-.2.16-.4.31-.59.47-.18.15-.36.3-.54.45-.35.29-.69.58-1.03.87-.02.02-.04.03-.05.05.02-.02.04-.03.05-.05-3.34,2.89-6.39,6.1-9.04,9.62l-8.95-4.26c12.79-17.95,34.18-29.73,56.13-30.97-5.3.34-10.61,1.24-15.82,2.73,5.22-1.49,10.52-2.39,15.82-2.73l-.52-14.64C57.41,1.44,31.07,16.42,15.8,39.23c0,0,0,0,0,0L0,31.71l14.76,9.08s-.04.07-.07.1h0s12.48,7.67,12.48,7.67c.02-.03.04-.06.06-.09l8.29,5.1s-.04.05-.05.08c0,0,0,0,0,0l11.74,7.21h0s.04-.05.05-.07l7.65,4.7s-.03.04-.04.06l9.31,5.72s0,0,0,0h0c5.09-7.3,13.76-12.38,22.7-13.23h0ZM70.01,27.38c-.42.14-.83.27-1.24.42.41-.14.83-.28,1.24-.42ZM48.77,38.94c-.18.15-.36.3-.54.45.18-.15.36-.3.54-.45ZM60.54,58.88c-.38.37-.76.74-1.13,1.12.37-.38.75-.75,1.13-1.12ZM80.02,48.18c-.3.07-.6.14-.89.22.3-.08.59-.15.89-.22ZM76.93,49.06c-.49.16-.98.33-1.46.51.49-.18.97-.35,1.46-.51ZM75.25,49.65c-.56.21-1.12.43-1.67.66.55-.23,1.11-.45,1.67-.66ZM68.61,52.79c1.62-.94,3.27-1.76,4.95-2.47-1.75.74-3.46,1.6-5.1,2.56.05-.03.1-.06.15-.09ZM66.76,53.93c-.13.08-.26.18-.38.26.13-.09.25-.18.38-.26Z"/>
        </g>
        <g>
          <path class="cls-2" d="M91.54,78.24h-2.61c-2.19,0-3.97,1.83-3.97,4.08v2.49c1.54-.9,3.35-1.42,5.28-1.42s3.73.52,5.28,1.42v-2.49c0-2.25-1.78-4.08-3.97-4.08Z"/>
          <path class="cls-2" d="M110.5,78.03c-4.9-8.41-14.23-12.64-23.32-11.45-3.01.39-5.99,1.38-8.78,3s-5.11,3.73-6.93,6.16c-5.5,7.32-6.42,17.52-1.52,25.93,6.53,11.19,20.9,14.98,32.09,8.45,11.19-6.53,14.98-20.9,8.45-32.09ZM90.23,103.48c-5.68,0-10.29-4.49-10.29-10.04,0-2.77,1.15-5.29,3.02-7.1v-4.01c0-3.36,2.67-6.09,5.96-6.09h2.61c3.29,0,5.96,2.73,5.96,6.09v4.01c1.86,1.82,3.02,4.33,3.02,7.1,0,5.54-4.61,10.04-10.29,10.04Z"/>
          <path class="cls-2" d="M90.23,89.35c-1.35,0-2.45,1.07-2.45,2.39,0,1.02.66,1.89,1.58,2.24v2.67c0,.44.37.8.82.8h.21c.45,0,.82-.36.82-.8v-2.71c.87-.37,1.47-1.21,1.47-2.19,0-1.32-1.1-2.39-2.45-2.39Z"/>
        </g>
      </g>
      <g>
        <g>
          <path class="cls-1" d="M216.04,92.08c0,3.44-.64,6.46-1.92,9.06-1.28,2.6-3.02,4.77-5.21,6.5-2.19,1.74-4.76,3.05-7.69,3.92s-6.07,1.32-9.41,1.32c-2.26,0-4.36-.19-6.3-.56-1.94-.37-3.65-.82-5.14-1.34-1.49-.52-2.73-1.07-3.72-1.64-1-.57-1.71-1.08-2.15-1.52-.44-.44-.75-1.07-.94-1.9-.19-.83-.28-2.02-.28-3.57,0-1.05.03-1.92.1-2.63.07-.71.18-1.28.33-1.72.15-.44.35-.75.61-.94.25-.18.55-.28.89-.28.47,0,1.14.28,2,.84s1.96,1.17,3.32,1.85c1.35.68,2.96,1.29,4.83,1.85,1.87.56,4.04.84,6.5.84,1.62,0,3.07-.19,4.35-.58,1.28-.39,2.37-.94,3.26-1.64.89-.71,1.58-1.59,2.05-2.63.47-1.05.71-2.21.71-3.49,0-1.48-.4-2.76-1.21-3.82s-1.87-2.01-3.16-2.83c-1.3-.83-2.78-1.6-4.43-2.33-1.65-.73-3.36-1.49-5.11-2.3-1.75-.81-3.46-1.73-5.11-2.76-1.65-1.03-3.13-2.26-4.43-3.69-1.3-1.43-2.35-3.13-3.16-5.09-.81-1.96-1.21-4.3-1.21-7.03,0-3.14.58-5.9,1.75-8.27s2.73-4.35,4.71-5.92c1.97-1.57,4.3-2.74,6.98-3.52,2.68-.78,5.52-1.16,8.53-1.16,1.55,0,3.1.12,4.66.35,1.55.24,3,.56,4.35.96,1.35.4,2.55.86,3.59,1.37,1.05.51,1.74.93,2.08,1.27.34.34.56.63.68.86.12.24.22.55.3.94.08.39.14.88.18,1.47.03.59.05,1.32.05,2.2,0,.98-.03,1.81-.08,2.48-.05.68-.14,1.23-.25,1.67-.12.44-.29.76-.51.96-.22.2-.51.3-.89.3s-.96-.24-1.77-.71c-.81-.47-1.81-.99-2.99-1.54-1.18-.56-2.55-1.06-4.1-1.52-1.55-.46-3.26-.68-5.11-.68-1.45,0-2.72.18-3.8.53-1.08.35-1.98.84-2.71,1.47-.73.63-1.27,1.38-1.62,2.25-.35.88-.53,1.81-.53,2.78,0,1.45.4,2.71,1.19,3.77.79,1.06,1.85,2.01,3.19,2.83,1.33.83,2.84,1.6,4.53,2.33,1.69.73,3.41,1.49,5.16,2.3,1.75.81,3.47,1.73,5.16,2.76,1.69,1.03,3.19,2.26,4.5,3.69,1.32,1.43,2.38,3.12,3.19,5.06.81,1.94,1.21,4.23,1.21,6.86Z"/>
          <path class="cls-1" d="M265.03,106.51c0,.98-.04,1.8-.13,2.45-.08.66-.21,1.19-.38,1.59-.17.4-.38.7-.63.89-.25.19-.53.28-.84.28h-32.9c-1.11,0-2.05-.33-2.81-.99s-1.14-1.73-1.14-3.21v-57.09c0-1.48.38-2.56,1.14-3.21s1.7-.99,2.81-.99h32.69c.3,0,.57.08.81.25.24.17.44.46.61.89.17.42.29.96.38,1.62.08.66.13,1.49.13,2.51,0,.95-.04,1.75-.13,2.4-.08.66-.21,1.19-.38,1.59-.17.4-.37.7-.61.89-.24.19-.51.28-.81.28h-23.38v15.99h19.79c.3,0,.58.09.84.28.25.19.46.47.63.86.17.39.29.91.38,1.57.08.66.13,1.46.13,2.4s-.04,1.79-.13,2.43c-.08.64-.21,1.16-.38,1.54-.17.39-.38.67-.63.84-.25.17-.53.25-.84.25h-19.79v18.47h23.58c.3,0,.58.09.84.28.25.19.46.48.63.89.17.4.29.94.38,1.59.08.66.13,1.48.13,2.45Z"/>
          <path class="cls-1" d="M320.55,101.8c0,.84-.03,1.56-.08,2.15-.05.59-.13,1.1-.23,1.52-.1.42-.24.78-.4,1.09-.17.3-.44.65-.81,1.04-.37.39-1.09.89-2.15,1.49-1.06.61-2.36,1.19-3.9,1.75-1.54.56-3.29,1.02-5.26,1.39-1.97.37-4.11.56-6.4.56-4.49,0-8.54-.69-12.15-2.08-3.61-1.38-6.68-3.45-9.21-6.2-2.53-2.75-4.47-6.18-5.82-10.3-1.35-4.12-2.02-8.91-2.02-14.37s.74-10.51,2.23-14.83c1.48-4.32,3.56-7.95,6.23-10.88,2.66-2.94,5.86-5.16,9.59-6.68,3.73-1.52,7.84-2.28,12.32-2.28,1.82,0,3.58.15,5.26.46,1.69.3,3.25.7,4.68,1.19,1.43.49,2.72,1.06,3.87,1.7,1.15.64,1.95,1.19,2.4,1.64s.77.84.94,1.14c.17.3.3.69.4,1.16.1.47.18,1.03.23,1.67.05.64.08,1.43.08,2.38,0,1.01-.03,1.87-.1,2.58-.07.71-.19,1.28-.35,1.72-.17.44-.37.76-.61.96-.24.2-.51.3-.81.3-.51,0-1.15-.29-1.92-.89-.78-.59-1.78-1.25-3.01-1.97-1.23-.73-2.7-1.38-4.4-1.97-1.7-.59-3.74-.89-6.1-.89-2.6,0-4.92.53-6.96,1.59-2.04,1.06-3.78,2.58-5.21,4.56-1.43,1.97-2.52,4.36-3.26,7.16-.74,2.8-1.11,5.96-1.11,9.46,0,3.85.4,7.18,1.19,10,.79,2.82,1.92,5.14,3.39,6.96,1.47,1.82,3.24,3.18,5.31,4.07,2.08.89,4.41,1.34,7.01,1.34,2.36,0,4.4-.28,6.12-.84s3.2-1.17,4.43-1.85c1.23-.67,2.24-1.28,3.04-1.82.79-.54,1.41-.81,1.85-.81.34,0,.61.07.81.2.2.14.37.4.51.81.13.4.24.97.3,1.7.07.73.1,1.7.1,2.91Z"/>
          <path class="cls-1" d="M383.56,87.33c0,4.02-.59,7.61-1.77,10.78-1.18,3.17-2.92,5.85-5.21,8.05-2.3,2.19-5.13,3.86-8.5,5.01-3.37,1.15-7.26,1.72-11.64,1.72-4.12,0-7.81-.51-11.08-1.54-3.27-1.03-6.04-2.59-8.3-4.68-2.26-2.09-3.99-4.7-5.19-7.82-1.2-3.12-1.8-6.77-1.8-10.96v-39.83c0-.34.1-.64.3-.91.2-.27.56-.49,1.09-.66.52-.17,1.21-.3,2.05-.4.84-.1,1.92-.15,3.24-.15s2.34.05,3.19.15c.84.1,1.52.24,2.02.4.51.17.87.39,1.09.66.22.27.33.57.33.91v38.67c0,2.6.32,4.85.96,6.76.64,1.91,1.56,3.48,2.76,4.73,1.2,1.25,2.63,2.19,4.3,2.81,1.67.63,3.53.94,5.59.94s3.96-.32,5.62-.96c1.65-.64,3.05-1.58,4.2-2.81,1.15-1.23,2.03-2.75,2.66-4.56.62-1.8.94-3.85.94-6.15v-39.43c0-.34.1-.64.3-.91.2-.27.56-.49,1.06-.66.51-.17,1.19-.3,2.05-.4.86-.1,1.93-.15,3.21-.15s2.34.05,3.16.15c.83.1,1.49.24,2,.4.51.17.86.39,1.06.66.2.27.3.57.3.91v39.27Z"/>
          <path class="cls-1" d="M446.37,110c0,.37-.07.68-.2.94-.14.25-.46.46-.96.63s-1.25.29-2.23.35c-.98.07-2.31.1-4,.1-1.42,0-2.55-.03-3.39-.1-.84-.07-1.51-.19-2-.38-.49-.18-.84-.42-1.04-.71-.2-.29-.37-.63-.51-1.04l-5.87-14.63c-.71-1.65-1.4-3.12-2.08-4.4-.68-1.28-1.43-2.35-2.25-3.21-.83-.86-1.78-1.51-2.86-1.95-1.08-.44-2.33-.66-3.75-.66h-4.15v24.95c0,.34-.11.64-.33.91-.22.27-.58.49-1.09.66-.51.17-1.18.3-2.02.4-.84.1-1.92.15-3.24.15s-2.35-.05-3.21-.15-1.54-.24-2.05-.4c-.51-.17-.86-.39-1.06-.66-.2-.27-.3-.57-.3-.91v-59.47c0-1.48.38-2.56,1.14-3.21s1.7-.99,2.81-.99h16.95c1.72,0,3.14.03,4.25.1,1.11.07,2.13.15,3.04.25,2.63.37,5,1.01,7.11,1.92,2.11.91,3.9,2.1,5.36,3.57s2.59,3.21,3.37,5.21c.78,2.01,1.16,4.31,1.16,6.91,0,2.19-.28,4.19-.84,6-.56,1.81-1.38,3.42-2.45,4.83-1.08,1.42-2.41,2.65-4,3.69-1.59,1.05-3.39,1.89-5.42,2.53.98.47,1.9,1.05,2.76,1.72.86.68,1.67,1.49,2.43,2.45s1.48,2.06,2.15,3.29c.67,1.23,1.33,2.62,1.97,4.18l5.52,12.91c.51,1.28.84,2.22,1.01,2.81.17.59.25,1.06.25,1.39ZM429.21,65.56c0-2.16-.49-3.98-1.47-5.47-.98-1.48-2.58-2.53-4.81-3.14-.68-.17-1.44-.3-2.3-.4s-2.05-.15-3.57-.15h-5.97v18.57h6.78c1.89,0,3.54-.23,4.96-.68,1.42-.46,2.6-1.1,3.54-1.92.94-.83,1.65-1.81,2.13-2.96.47-1.15.71-2.43.71-3.85Z"/>
          <path class="cls-1" d="M469.5,109.9c0,.34-.11.64-.33.91-.22.27-.58.49-1.09.66-.51.17-1.18.3-2.02.4-.84.1-1.92.15-3.24.15s-2.35-.05-3.21-.15-1.54-.24-2.05-.4c-.51-.17-.87-.39-1.09-.66-.22-.27-.33-.57-.33-.91v-61.85c0-.34.11-.64.33-.91.22-.27.59-.49,1.11-.66.52-.17,1.21-.3,2.05-.4.84-.1,1.91-.15,3.19-.15s2.4.05,3.24.15c.84.1,1.52.24,2.02.4.51.17.87.39,1.09.66.22.27.33.57.33.91v61.85Z"/>
          <path class="cls-1" d="M529.07,101.8c0,.84-.03,1.56-.08,2.15-.05.59-.13,1.1-.23,1.52-.1.42-.24.78-.4,1.09-.17.3-.44.65-.81,1.04-.37.39-1.09.89-2.15,1.49-1.06.61-2.36,1.19-3.9,1.75-1.54.56-3.29,1.02-5.26,1.39-1.97.37-4.11.56-6.4.56-4.49,0-8.54-.69-12.15-2.08-3.61-1.38-6.68-3.45-9.21-6.2-2.53-2.75-4.47-6.18-5.82-10.3-1.35-4.12-2.02-8.91-2.02-14.37s.74-10.51,2.23-14.83c1.48-4.32,3.56-7.95,6.23-10.88,2.66-2.94,5.86-5.16,9.59-6.68,3.73-1.52,7.84-2.28,12.32-2.28,1.82,0,3.58.15,5.26.46,1.69.3,3.25.7,4.68,1.19,1.43.49,2.72,1.06,3.87,1.7,1.15.64,1.95,1.19,2.4,1.64s.77.84.94,1.14c.17.3.3.69.4,1.16.1.47.18,1.03.23,1.67.05.64.08,1.43.08,2.38,0,1.01-.03,1.87-.1,2.58-.07.71-.19,1.28-.35,1.72-.17.44-.37.76-.61.96-.24.2-.51.3-.81.3-.51,0-1.15-.29-1.92-.89-.78-.59-1.78-1.25-3.01-1.97-1.23-.73-2.7-1.38-4.4-1.97-1.7-.59-3.74-.89-6.1-.89-2.6,0-4.92.53-6.96,1.59-2.04,1.06-3.78,2.58-5.21,4.56-1.43,1.97-2.52,4.36-3.26,7.16-.74,2.8-1.11,5.96-1.11,9.46,0,3.85.4,7.18,1.19,10,.79,2.82,1.92,5.14,3.39,6.96s3.24,3.18,5.31,4.07c2.08.89,4.41,1.34,7.01,1.34,2.36,0,4.4-.28,6.12-.84s3.2-1.17,4.43-1.85c1.23-.67,2.24-1.28,3.04-1.82.79-.54,1.41-.81,1.85-.81.34,0,.61.07.81.2.2.14.37.4.51.81.13.4.24.97.3,1.7.07.73.1,1.7.1,2.91Z"/>
          <path class="cls-1" d="M596.79,78.22c0,5.43-.68,10.29-2.02,14.58-1.35,4.29-3.36,7.92-6.02,10.91-2.67,2.99-5.96,5.26-9.89,6.83-3.93,1.57-8.48,2.35-13.64,2.35s-9.54-.67-13.34-2c-3.8-1.33-6.96-3.37-9.49-6.1-2.53-2.73-4.43-6.21-5.69-10.43-1.27-4.22-1.9-9.21-1.9-14.98,0-5.3.67-10.06,2.02-14.3,1.35-4.23,3.36-7.84,6.02-10.81,2.66-2.97,5.96-5.25,9.89-6.83,3.93-1.59,8.49-2.38,13.69-2.38s9.34.66,13.13,1.97c3.8,1.32,6.97,3.34,9.51,6.07,2.55,2.73,4.47,6.18,5.77,10.35,1.3,4.17,1.95,9.08,1.95,14.75ZM582.82,78.92c0-3.44-.27-6.57-.81-9.39-.54-2.82-1.46-5.23-2.76-7.24-1.3-2.01-3.03-3.56-5.19-4.66-2.16-1.1-4.86-1.64-8.1-1.64s-6.01.62-8.2,1.85c-2.19,1.23-3.97,2.88-5.31,4.93-1.35,2.06-2.3,4.46-2.86,7.21-.56,2.75-.84,5.66-.84,8.73,0,3.58.27,6.79.81,9.64.54,2.85,1.45,5.29,2.73,7.31,1.28,2.02,3,3.57,5.16,4.63,2.16,1.06,4.88,1.59,8.15,1.59s6.01-.61,8.2-1.82c2.19-1.21,3.96-2.87,5.31-4.96,1.35-2.09,2.3-4.53,2.86-7.31s.84-5.74.84-8.88Z"/>
          <path class="cls-1" d="M656.56,110c0,.37-.07.68-.2.94-.14.25-.46.46-.96.63s-1.25.29-2.23.35c-.98.07-2.31.1-4,.1-1.42,0-2.55-.03-3.39-.1-.84-.07-1.51-.19-2-.38-.49-.18-.84-.42-1.04-.71-.2-.29-.37-.63-.51-1.04l-5.87-14.63c-.71-1.65-1.4-3.12-2.08-4.4-.68-1.28-1.43-2.35-2.25-3.21-.83-.86-1.78-1.51-2.86-1.95-1.08-.44-2.33-.66-3.75-.66h-4.15v24.95c0,.34-.11.64-.33.91-.22.27-.58.49-1.09.66-.51.17-1.18.3-2.02.4-.84.1-1.92.15-3.24.15s-2.35-.05-3.21-.15-1.54-.24-2.05-.4c-.51-.17-.86-.39-1.06-.66-.2-.27-.3-.57-.3-.91v-59.47c0-1.48.38-2.56,1.14-3.21s1.7-.99,2.81-.99h16.95c1.72,0,3.14.03,4.25.1,1.11.07,2.13.15,3.04.25,2.63.37,5,1.01,7.11,1.92,2.11.91,3.9,2.1,5.36,3.57,1.47,1.47,2.59,3.21,3.37,5.21.78,2.01,1.16,4.31,1.16,6.91,0,2.19-.28,4.19-.84,6-.56,1.81-1.38,3.42-2.45,4.83-1.08,1.42-2.41,2.65-4,3.69-1.59,1.05-3.39,1.89-5.42,2.53.98.47,1.9,1.05,2.76,1.72.86.68,1.67,1.49,2.43,2.45s1.48,2.06,2.15,3.29c.67,1.23,1.33,2.62,1.97,4.18l5.52,12.91c.51,1.28.84,2.22,1.01,2.81.17.59.25,1.06.25,1.39ZM639.4,65.56c0-2.16-.49-3.98-1.47-5.47-.98-1.48-2.58-2.53-4.81-3.14-.68-.17-1.44-.3-2.3-.4s-2.05-.15-3.57-.15h-5.97v18.57h6.78c1.89,0,3.54-.23,4.96-.68,1.42-.46,2.6-1.1,3.54-1.92.94-.83,1.65-1.81,2.13-2.96.47-1.15.71-2.43.71-3.85Z"/>
          <path class="cls-1" d="M705.15,106.51c0,.98-.04,1.8-.13,2.45-.08.66-.21,1.19-.38,1.59-.17.4-.38.7-.63.89-.25.19-.53.28-.84.28h-32.9c-1.11,0-2.05-.33-2.81-.99s-1.14-1.73-1.14-3.21v-57.09c0-1.48.38-2.56,1.14-3.21s1.7-.99,2.81-.99h32.69c.3,0,.57.08.81.25.24.17.44.46.61.89.17.42.29.96.38,1.62.08.66.13,1.49.13,2.51,0,.95-.04,1.75-.13,2.4-.08.66-.21,1.19-.38,1.59-.17.4-.37.7-.61.89-.24.19-.51.28-.81.28h-23.38v15.99h19.79c.3,0,.58.09.84.28.25.19.46.47.63.86.17.39.29.91.38,1.57.08.66.13,1.46.13,2.4s-.04,1.79-.13,2.43c-.08.64-.21,1.16-.38,1.54-.17.39-.38.67-.63.84-.25.17-.53.25-.84.25h-19.79v18.47h23.58c.3,0,.58.09.84.28.25.19.46.48.63.89.17.4.29.94.38,1.59.08.66.13,1.48.13,2.45Z"/>
        </g>
        <g>
          <path class="cls-2" d="M180.57,139.93c0,.09-.04.18-.11.26-.07.08-.19.14-.35.18s-.38.08-.65.11c-.27.03-.62.04-1.04.04s-.75-.01-1.03-.04c-.28-.03-.49-.07-.66-.11s-.28-.11-.35-.18-.11-.16-.11-.26v-17.35c0-.09.03-.18.11-.26s.19-.14.36-.18c.17-.05.39-.09.66-.11.27-.03.61-.04,1.02-.04s.77.01,1.04.04c.27.03.49.07.65.11.16.05.28.11.35.18.07.08.11.16.11.26v17.35Z"/>
          <path class="cls-2" d="M202.41,139.13c0,.22-.04.41-.13.58-.09.17-.2.31-.35.43-.15.11-.32.2-.52.25-.2.05-.4.08-.61.08h-1.81c-.38,0-.7-.03-.98-.1s-.53-.19-.76-.36c-.23-.18-.46-.41-.67-.71-.22-.3-.46-.68-.73-1.16l-5.21-8.59c-.3-.51-.61-1.06-.92-1.65-.31-.59-.59-1.17-.84-1.72h-.03c.04.68.08,1.36.1,2.04.02.68.03,1.38.03,2.1v9.61c0,.09-.03.18-.09.26s-.16.14-.31.19-.34.09-.59.12c-.25.03-.57.04-.96.04s-.69-.01-.94-.04c-.25-.03-.44-.07-.58-.12-.14-.05-.24-.12-.29-.19s-.08-.16-.08-.26v-16.52c0-.45.15-.78.45-1,.3-.22.66-.33,1.09-.33h2.28c.41,0,.76.03,1.04.09.28.06.53.16.75.31.22.14.43.34.62.59.19.25.39.56.6.93l4.08,6.72c.24.41.47.81.7,1.2.23.39.46.79.67,1.18.22.39.43.78.63,1.16.2.38.4.76.6,1.14h.02c-.03-.66-.06-1.35-.07-2.07-.02-.72-.02-1.41-.02-2.06v-8.62c0-.09.03-.18.1-.26.07-.08.17-.14.32-.2s.35-.1.6-.12c.25-.02.57-.04.96-.04.37,0,.67.01.92.04.25.02.44.06.58.12.13.06.23.12.28.2.05.08.08.16.08.26v16.52Z"/>
          <path class="cls-2" d="M218.73,123.6c0,.28-.01.52-.04.72-.03.19-.07.35-.13.46-.06.11-.13.2-.2.26-.08.06-.16.08-.26.08h-6.85v4.94h6.43c.1,0,.18.02.26.07.08.05.14.13.2.24s.1.27.13.45c.03.19.04.43.04.71s-.01.52-.04.71c-.03.19-.07.35-.13.47s-.13.21-.2.26c-.08.05-.16.08-.26.08h-6.43v6.85c0,.11-.03.19-.1.27-.06.08-.18.14-.35.19-.17.05-.39.09-.66.12-.27.03-.62.04-1.04.04s-.75-.01-1.03-.04c-.28-.03-.49-.07-.66-.12s-.28-.12-.35-.19-.11-.17-.11-.27v-16.66c0-.42.12-.72.36-.9s.54-.28.9-.28h9.86c.1,0,.18.03.26.08.08.05.14.14.2.26.06.12.1.28.13.48.03.2.04.44.04.73Z"/>
          <path class="cls-2" d="M240.79,131.04c0,1.52-.22,2.89-.65,4.09-.43,1.2-1.07,2.22-1.93,3.06-.85.84-1.91,1.48-3.17,1.92-1.26.44-2.71.66-4.36.66s-3.05-.19-4.27-.56c-1.21-.37-2.23-.95-3.04-1.71-.81-.77-1.42-1.74-1.82-2.93-.4-1.18-.61-2.58-.61-4.2,0-1.49.22-2.82.65-4.01.43-1.19,1.07-2.2,1.93-3.03.85-.83,1.91-1.47,3.17-1.92,1.26-.45,2.72-.67,4.38-.67s2.99.18,4.2.55c1.21.37,2.23.94,3.04,1.7s1.43,1.74,1.85,2.91.62,2.55.62,4.14ZM236.32,131.24c0-.97-.09-1.84-.26-2.63-.17-.79-.47-1.47-.88-2.03-.42-.56-.97-1-1.66-1.31-.69-.31-1.55-.46-2.59-.46s-1.92.17-2.62.52-1.27.81-1.7,1.38c-.43.58-.74,1.25-.91,2.02-.18.77-.27,1.59-.27,2.45,0,1,.09,1.91.26,2.71s.46,1.48.87,2.05.96,1,1.65,1.3,1.56.45,2.61.45,1.92-.17,2.62-.51c.7-.34,1.27-.8,1.7-1.39.43-.59.74-1.27.91-2.05.18-.78.27-1.61.27-2.49Z"/>
          <path class="cls-2" d="M256.79,134.93c0,.97-.2,1.81-.61,2.54s-.97,1.34-1.67,1.82c-.7.49-1.52.86-2.46,1.1-.94.25-1.94.37-3.01.37-.72,0-1.39-.05-2.02-.16-.62-.11-1.17-.23-1.64-.38-.48-.15-.87-.3-1.19-.46-.32-.16-.55-.3-.69-.43s-.24-.3-.3-.53c-.06-.23-.09-.57-.09-1,0-.29.01-.54.03-.74s.06-.36.11-.48c.05-.12.11-.21.19-.26s.18-.08.28-.08c.15,0,.36.08.64.23.28.16.63.33,1.06.52.43.19.95.36,1.55.52.6.16,1.29.24,2.08.24.52,0,.98-.05,1.39-.16s.76-.26,1.04-.46.5-.45.66-.74.23-.62.23-.98c0-.42-.13-.77-.39-1.07-.26-.3-.6-.56-1.01-.79-.42-.23-.89-.45-1.42-.65s-1.07-.42-1.64-.65c-.56-.23-1.11-.49-1.63-.77-.53-.29-1-.63-1.42-1.04-.42-.4-.75-.88-1.01-1.43-.26-.55-.39-1.21-.39-1.97,0-.88.19-1.65.56-2.32.37-.67.87-1.22,1.51-1.66s1.38-.77,2.23-.99c.86-.22,1.77-.33,2.73-.33.5,0,.99.03,1.49.1s.96.16,1.39.27.81.24,1.15.38c.33.14.56.26.66.36.11.09.18.17.22.24.04.07.07.15.1.26.03.11.05.25.06.41.01.17.02.37.02.62,0,.27,0,.51-.02.7-.02.19-.04.35-.08.47-.04.12-.09.21-.16.27s-.16.08-.28.08-.31-.07-.57-.2c-.26-.13-.58-.28-.96-.43-.38-.16-.82-.3-1.31-.43-.5-.13-1.04-.19-1.64-.19-.46,0-.87.05-1.21.15-.35.1-.63.24-.87.41-.23.18-.4.39-.52.63-.11.25-.17.51-.17.78,0,.41.13.76.38,1.06s.59.56,1.02.8c.43.23.91.45,1.45.65s1.09.42,1.65.65c.56.23,1.11.48,1.65.77.54.29,1.02.64,1.44,1.04s.76.88,1.02,1.42c.26.54.39,1.19.39,1.92Z"/>
          <path class="cls-2" d="M272.46,138.98c0,.27-.01.5-.04.69-.03.18-.07.33-.12.45-.05.11-.12.2-.2.25s-.17.08-.27.08h-10.52c-.36,0-.66-.09-.9-.28s-.36-.48-.36-.9v-16.02c0-.42.12-.72.36-.9s.54-.28.9-.28h10.46c.1,0,.18.02.26.07.08.05.14.13.19.25.05.12.09.27.12.45.03.18.04.42.04.7,0,.27-.01.49-.04.67-.03.18-.07.33-.12.45-.05.11-.12.2-.19.25-.08.05-.16.08-.26.08h-7.48v4.49h6.33c.1,0,.19.03.27.08.08.05.15.13.2.24.05.11.09.26.12.44s.04.41.04.68-.01.5-.04.68c-.03.18-.07.33-.12.43-.05.11-.12.19-.2.23-.08.05-.17.07-.27.07h-6.33v5.18h7.54c.1,0,.19.03.27.08.08.05.15.13.2.25.05.11.09.26.12.45.03.18.04.41.04.69Z"/>
          <path class="cls-2" d="M290.22,137.66c0,.24,0,.44-.02.6-.02.17-.04.31-.07.43-.03.12-.08.22-.13.3-.05.08-.14.18-.26.29s-.35.25-.69.42c-.34.17-.76.33-1.25.49-.49.16-1.05.29-1.68.39s-1.31.16-2.05.16c-1.44,0-2.73-.19-3.89-.58-1.15-.39-2.14-.97-2.95-1.74s-1.43-1.74-1.86-2.89c-.43-1.15-.65-2.5-.65-4.03s.24-2.95.71-4.16c.47-1.21,1.14-2.23,1.99-3.05.85-.82,1.88-1.45,3.07-1.88s2.51-.64,3.94-.64c.58,0,1.14.04,1.68.13s1.04.2,1.5.33c.46.14.87.3,1.24.48s.62.33.77.46c.15.13.25.24.3.32.05.08.1.19.13.33.03.13.06.29.07.47.02.18.02.4.02.67,0,.28-.01.53-.03.73s-.06.36-.11.48c-.05.12-.12.21-.19.27s-.16.08-.26.08c-.16,0-.37-.08-.62-.25-.25-.17-.57-.35-.96-.55-.39-.2-.86-.39-1.41-.55-.54-.17-1.2-.25-1.95-.25-.83,0-1.57.15-2.23.45s-1.21.73-1.67,1.28c-.46.55-.81,1.22-1.04,2.01s-.36,1.67-.36,2.66c0,1.08.13,2.01.38,2.8.25.79.62,1.44,1.08,1.95s1.04.89,1.7,1.14c.66.25,1.41.38,2.24.38.76,0,1.41-.08,1.96-.24.55-.16,1.02-.33,1.42-.52.39-.19.72-.36.97-.51s.45-.23.59-.23c.11,0,.19.02.26.06.07.04.12.11.16.23.04.11.08.27.1.48.02.2.03.48.03.82Z"/>
          <path class="cls-2" d="M318.18,130.98c0,1.69-.25,3.13-.75,4.32-.5,1.2-1.22,2.18-2.16,2.93-.94.76-2.08,1.31-3.42,1.67s-2.94.53-4.8.53h-5c-.36,0-.66-.09-.9-.28s-.36-.48-.36-.9v-16.02c0-.42.12-.72.36-.9s.54-.28.9-.28h5.37c1.87,0,3.45.19,4.75.57,1.3.38,2.4.95,3.29,1.7.89.75,1.57,1.68,2.03,2.79.46,1.11.7,2.39.7,3.85ZM313.77,131.11c0-.87-.12-1.68-.35-2.43-.23-.75-.6-1.4-1.12-1.94-.51-.55-1.17-.98-1.98-1.29s-1.86-.46-3.17-.46h-2.15v12.5h2.22c1.17,0,2.15-.13,2.95-.4.8-.26,1.47-.67,2-1.2.53-.54.93-1.2,1.2-2,.26-.8.4-1.72.4-2.78Z"/>
          <path class="cls-2" d="M325.95,139.93c0,.09-.04.18-.11.26-.07.08-.19.14-.35.18s-.38.08-.65.11c-.27.03-.62.04-1.04.04s-.75-.01-1.03-.04c-.28-.03-.49-.07-.66-.11s-.28-.11-.35-.18-.11-.16-.11-.26v-17.35c0-.09.03-.18.11-.26s.19-.14.36-.18c.17-.05.39-.09.66-.11.27-.03.61-.04,1.02-.04s.77.01,1.04.04c.27.03.48.07.65.11.16.05.28.11.35.18.07.08.11.16.11.26v17.35Z"/>
          <path class="cls-2" d="M340.94,139.79c-.05.16-.12.29-.21.39-.09.1-.23.18-.42.23s-.46.08-.79.1c-.33.01-.77.02-1.31.02-.43,0-.8,0-1.11,0-.31,0-.57-.02-.78-.04-.22-.02-.39-.05-.53-.09-.14-.04-.25-.08-.34-.14s-.16-.13-.21-.21c-.05-.08-.09-.18-.14-.3l-6.23-16.29c-.13-.34-.21-.61-.24-.81-.03-.2.03-.35.16-.45.14-.1.36-.16.69-.18.32-.02.78-.04,1.36-.04.5,0,.88.01,1.17.03s.5.05.65.1c.15.05.26.12.32.21.06.09.12.21.17.35l5.1,14.17h.02l5-14.1c.04-.16.1-.29.16-.39.06-.1.17-.18.33-.24.16-.06.38-.09.67-.11s.69-.03,1.2-.03.88.01,1.16.04c.27.03.46.1.57.21s.14.26.1.46c-.04.2-.12.47-.25.8l-6.25,16.3Z"/>
          <path class="cls-2" d="M354.39,139.93c0,.09-.04.18-.11.26-.07.08-.19.14-.35.18s-.38.08-.65.11c-.27.03-.61.04-1.04.04s-.75-.01-1.03-.04c-.28-.03-.49-.07-.66-.11s-.28-.11-.35-.18c-.07-.08-.11-.16-.11-.26v-17.35c0-.09.04-.18.11-.26.07-.08.19-.14.36-.18.17-.05.39-.09.66-.11.27-.03.61-.04,1.02-.04s.77.01,1.04.04c.27.03.49.07.65.11.16.05.28.11.35.18.07.08.11.16.11.26v17.35Z"/>
          <path class="cls-2" d="M371.37,134.93c0,.97-.2,1.81-.61,2.54-.41.73-.97,1.34-1.67,1.82-.7.49-1.52.86-2.46,1.1-.94.25-1.94.37-3.01.37-.72,0-1.4-.05-2.02-.16-.62-.11-1.17-.23-1.64-.38-.47-.15-.87-.3-1.19-.46-.32-.16-.55-.3-.69-.43s-.24-.3-.3-.53-.09-.57-.09-1c0-.29.01-.54.03-.74.02-.2.06-.36.11-.48.05-.12.11-.21.19-.26s.18-.08.28-.08c.15,0,.36.08.64.23.27.16.63.33,1.06.52.43.19.95.36,1.55.52.6.16,1.29.24,2.08.24.52,0,.98-.05,1.39-.16s.76-.26,1.04-.46.5-.45.66-.74c.15-.29.23-.62.23-.98,0-.42-.13-.77-.39-1.07-.26-.3-.6-.56-1.01-.79-.42-.23-.89-.45-1.42-.65s-1.07-.42-1.63-.65c-.56-.23-1.11-.49-1.63-.77s-1-.63-1.42-1.04c-.42-.4-.75-.88-1.01-1.43-.26-.55-.39-1.21-.39-1.97,0-.88.19-1.65.56-2.32.37-.67.87-1.22,1.51-1.66s1.38-.77,2.23-.99c.86-.22,1.77-.33,2.73-.33.5,0,.99.03,1.49.1.5.07.96.16,1.39.27s.81.24,1.15.38c.34.14.56.26.66.36s.18.17.22.24.07.15.1.26c.03.11.05.25.06.41.01.17.02.37.02.62,0,.27,0,.51-.02.7-.02.19-.04.35-.08.47s-.09.21-.16.27c-.07.06-.16.08-.28.08s-.31-.07-.57-.2c-.26-.13-.58-.28-.96-.43-.38-.16-.81-.3-1.31-.43s-1.04-.19-1.63-.19c-.46,0-.87.05-1.21.15-.35.1-.63.24-.87.41-.23.18-.4.39-.52.63-.11.25-.17.51-.17.78,0,.41.13.76.38,1.06.25.3.59.56,1.02.8.43.23.91.45,1.45.65.54.2,1.09.42,1.65.65.56.23,1.11.48,1.65.77.54.29,1.02.64,1.44,1.04.42.4.76.88,1.02,1.42.26.54.39,1.19.39,1.92Z"/>
          <path class="cls-2" d="M378.9,139.93c0,.09-.04.18-.11.26-.07.08-.19.14-.35.18s-.38.08-.65.11c-.27.03-.61.04-1.04.04s-.75-.01-1.03-.04c-.28-.03-.49-.07-.66-.11s-.28-.11-.35-.18c-.07-.08-.11-.16-.11-.26v-17.35c0-.09.04-.18.11-.26.07-.08.19-.14.36-.18.17-.05.39-.09.66-.11.27-.03.61-.04,1.02-.04s.77.01,1.04.04c.27.03.49.07.65.11.16.05.28.11.35.18.07.08.11.16.11.26v17.35Z"/>
          <path class="cls-2" d="M402.31,131.04c0,1.52-.22,2.89-.65,4.09-.43,1.2-1.07,2.22-1.93,3.06s-1.91,1.48-3.16,1.92c-1.26.44-2.71.66-4.36.66s-3.05-.19-4.27-.56c-1.22-.37-2.23-.95-3.04-1.71s-1.42-1.74-1.82-2.93c-.4-1.18-.61-2.58-.61-4.2,0-1.49.22-2.82.65-4.01s1.07-2.2,1.93-3.03c.85-.83,1.91-1.47,3.17-1.92,1.26-.45,2.72-.67,4.38-.67s2.99.18,4.2.55c1.21.37,2.23.94,3.04,1.7s1.43,1.74,1.85,2.91c.42,1.17.62,2.55.62,4.14ZM397.84,131.24c0-.97-.09-1.84-.26-2.63-.17-.79-.47-1.47-.88-2.03-.42-.56-.97-1-1.66-1.31s-1.55-.46-2.59-.46-1.92.17-2.62.52c-.7.35-1.27.81-1.7,1.38-.43.58-.74,1.25-.92,2.02s-.27,1.59-.27,2.45c0,1,.09,1.91.26,2.71.17.8.46,1.48.87,2.05.41.57.96,1,1.65,1.3.69.3,1.56.45,2.61.45s1.92-.17,2.62-.51c.7-.34,1.27-.8,1.7-1.39.43-.59.74-1.27.91-2.05.18-.78.27-1.61.27-2.49Z"/>
          <path class="cls-2" d="M423.16,139.13c0,.22-.04.41-.13.58-.09.17-.2.31-.35.43-.15.11-.32.2-.52.25s-.4.08-.61.08h-1.81c-.38,0-.7-.03-.98-.1-.27-.07-.53-.19-.76-.36-.23-.18-.46-.41-.67-.71-.22-.3-.46-.68-.73-1.16l-5.21-8.59c-.3-.51-.61-1.06-.92-1.65-.31-.59-.59-1.17-.84-1.72h-.03c.04.68.08,1.36.1,2.04s.03,1.38.03,2.1v9.61c0,.09-.03.18-.09.26s-.16.14-.31.19-.34.09-.59.12c-.25.03-.57.04-.96.04s-.69-.01-.94-.04c-.25-.03-.44-.07-.58-.12s-.24-.12-.29-.19-.08-.16-.08-.26v-16.52c0-.45.15-.78.45-1,.3-.22.66-.33,1.09-.33h2.28c.41,0,.76.03,1.04.09.28.06.53.16.75.31.22.14.43.34.62.59.19.25.39.56.6.93l4.08,6.72c.24.41.47.81.7,1.2.23.39.46.79.67,1.18.22.39.43.78.63,1.16s.4.76.6,1.14h.02c-.03-.66-.06-1.35-.07-2.07-.02-.72-.02-1.41-.02-2.06v-8.62c0-.09.03-.18.1-.26.06-.08.17-.14.32-.2.15-.06.35-.1.6-.12.25-.02.57-.04.96-.04.37,0,.67.01.92.04.25.02.44.06.57.12.14.06.23.12.28.2s.08.16.08.26v16.52Z"/>
          <path class="cls-2" d="M454.07,131.04c0,1.52-.22,2.89-.65,4.09-.43,1.2-1.07,2.22-1.93,3.06-.85.84-1.91,1.48-3.16,1.92-1.26.44-2.71.66-4.36.66s-3.05-.19-4.27-.56c-1.21-.37-2.23-.95-3.04-1.71s-1.42-1.74-1.82-2.93c-.4-1.18-.61-2.58-.61-4.2,0-1.49.22-2.82.65-4.01s1.07-2.2,1.93-3.03c.85-.83,1.91-1.47,3.16-1.92,1.26-.45,2.72-.67,4.38-.67s2.99.18,4.2.55c1.21.37,2.23.94,3.04,1.7s1.43,1.74,1.85,2.91c.42,1.17.62,2.55.62,4.14ZM449.6,131.24c0-.97-.09-1.84-.26-2.63-.17-.79-.47-1.47-.88-2.03-.42-.56-.97-1-1.66-1.31s-1.55-.46-2.59-.46-1.92.17-2.62.52c-.7.35-1.27.81-1.7,1.38-.43.58-.74,1.25-.91,2.02s-.27,1.59-.27,2.45c0,1,.09,1.91.26,2.71.17.8.46,1.48.87,2.05.41.57.96,1,1.65,1.3.69.3,1.56.45,2.61.45s1.92-.17,2.62-.51c.7-.34,1.27-.8,1.7-1.39.43-.59.74-1.27.91-2.05.18-.78.27-1.61.27-2.49Z"/>
          <path class="cls-2" d="M469.4,123.6c0,.28-.01.52-.04.72s-.07.35-.13.46c-.06.11-.13.2-.2.26-.08.06-.16.08-.26.08h-6.85v4.94h6.43c.1,0,.18.02.26.07.08.05.14.13.2.24s.1.27.13.45c.03.19.04.43.04.71s-.01.52-.04.71c-.03.19-.07.35-.13.47s-.13.21-.2.26-.16.08-.26.08h-6.43v6.85c0,.11-.03.19-.1.27s-.18.14-.35.19-.39.09-.66.12c-.27.03-.61.04-1.04.04s-.75-.01-1.03-.04c-.28-.03-.49-.07-.66-.12s-.28-.12-.35-.19c-.07-.08-.11-.17-.11-.27v-16.66c0-.42.12-.72.36-.9s.54-.28.9-.28h9.86c.1,0,.18.03.26.08.07.05.14.14.2.26.06.12.1.28.13.48.03.2.04.44.04.73Z"/>
          <path class="cls-2" d="M496.71,139.93c0,.09-.04.18-.11.26-.07.08-.19.14-.35.18s-.38.08-.65.11c-.27.03-.61.04-1.02.04s-.77-.01-1.05-.04c-.27-.03-.49-.07-.65-.11-.16-.05-.27-.11-.34-.18-.07-.08-.11-.16-.11-.26v-7.43h-7.84v7.43c0,.09-.03.18-.1.26-.06.08-.18.14-.34.18s-.38.08-.65.11c-.27.03-.61.04-1.04.04s-.75-.01-1.03-.04c-.28-.03-.49-.07-.66-.11s-.28-.11-.35-.18c-.07-.08-.11-.16-.11-.26v-17.35c0-.09.04-.18.11-.26.07-.08.19-.14.35-.18.16-.05.38-.09.66-.11.27-.03.62-.04,1.03-.04s.77.01,1.04.04c.27.03.49.07.65.11.16.05.27.11.34.18.07.08.1.16.1.26v6.75h7.84v-6.75c0-.09.03-.18.11-.26.07-.08.18-.14.34-.18.16-.05.37-.09.65-.11.28-.03.62-.04,1.05-.04s.75.01,1.02.04c.27.03.49.07.65.11.16.05.28.11.35.18.07.08.11.16.11.26v17.35Z"/>
          <path class="cls-2" d="M505.55,139.93c0,.09-.04.18-.11.26-.07.08-.19.14-.35.18s-.38.08-.65.11c-.27.03-.61.04-1.04.04s-.75-.01-1.03-.04c-.28-.03-.49-.07-.66-.11s-.28-.11-.35-.18c-.07-.08-.11-.16-.11-.26v-17.35c0-.09.04-.18.11-.26.07-.08.19-.14.36-.18.17-.05.39-.09.66-.11.27-.03.61-.04,1.02-.04s.77.01,1.04.04c.27.03.49.07.65.11.16.05.28.11.35.18.07.08.11.16.11.26v17.35Z"/>
          <path class="cls-2" d="M520.54,139.79c-.05.16-.12.29-.21.39-.09.1-.23.18-.42.23-.19.05-.46.08-.79.1-.33.01-.77.02-1.31.02-.43,0-.8,0-1.11,0-.31,0-.57-.02-.78-.04-.22-.02-.39-.05-.53-.09-.14-.04-.25-.08-.34-.14s-.16-.13-.21-.21c-.05-.08-.09-.18-.14-.3l-6.23-16.29c-.13-.34-.21-.61-.24-.81-.03-.2.03-.35.16-.45.14-.1.36-.16.69-.18.32-.02.78-.04,1.36-.04.5,0,.88.01,1.17.03s.5.05.65.1c.15.05.26.12.32.21.06.09.12.21.17.35l5.1,14.17h.02l5-14.1c.04-.16.1-.29.16-.39.06-.1.17-.18.33-.24.16-.06.38-.09.67-.11s.69-.03,1.2-.03.88.01,1.16.04c.27.03.46.1.57.21.1.11.14.26.1.46-.04.2-.12.47-.25.8l-6.25,16.3Z"/>
          <path class="cls-2" d="M542.14,138.98c0,.27-.01.5-.04.69-.03.18-.07.33-.12.45-.05.11-.12.2-.2.25s-.17.08-.27.08h-10.52c-.36,0-.66-.09-.9-.28s-.36-.48-.36-.9v-16.02c0-.42.12-.72.36-.9s.54-.28.9-.28h10.46c.1,0,.18.02.26.07.08.05.14.13.19.25.05.12.09.27.12.45.03.18.04.42.04.7,0,.27-.01.49-.04.67-.03.18-.07.33-.12.45-.05.11-.12.2-.19.25s-.16.08-.26.08h-7.48v4.49h6.33c.1,0,.19.03.27.08s.15.13.2.24c.05.11.09.26.12.44s.04.41.04.68-.01.5-.04.68c-.03.18-.07.33-.12.43s-.12.19-.2.23c-.08.05-.17.07-.27.07h-6.33v5.18h7.54c.1,0,.19.03.27.08.08.05.15.13.2.25.05.11.09.26.12.45.03.18.04.41.04.69Z"/>
          <path class="cls-2" d="M561.43,139.96c0,.11-.02.19-.06.26s-.15.13-.31.18c-.16.05-.4.08-.71.1-.31.02-.74.03-1.28.03-.45,0-.81,0-1.08-.03s-.48-.05-.64-.11c-.16-.05-.27-.12-.33-.2-.06-.08-.12-.18-.16-.29l-1.88-4.1c-.23-.46-.45-.88-.66-1.24-.22-.36-.46-.66-.72-.9-.26-.24-.57-.42-.91-.55-.35-.12-.74-.18-1.2-.18h-1.33v7c0,.09-.04.18-.11.26-.07.08-.19.14-.35.18s-.38.08-.65.11c-.27.03-.61.04-1.04.04s-.75-.01-1.03-.04c-.28-.03-.49-.07-.66-.11-.16-.05-.28-.11-.34-.18s-.1-.16-.1-.26v-16.69c0-.42.12-.72.36-.9s.54-.28.9-.28h5.42c.55,0,1,0,1.36.03.36.02.68.04.97.07.84.11,1.6.28,2.27.54s1.25.59,1.72,1c.47.41.83.9,1.08,1.46.25.56.37,1.21.37,1.94,0,.62-.09,1.18-.27,1.68-.18.51-.44.96-.79,1.36-.35.4-.77.74-1.28,1.04s-1.08.53-1.73.71c.31.13.61.29.88.48.27.19.53.42.78.69s.47.58.69.92c.22.35.43.74.63,1.17l1.76,3.62c.16.36.27.62.32.79s.08.3.08.39ZM555.95,127.49c0-.6-.16-1.12-.47-1.53-.31-.42-.83-.71-1.54-.88-.22-.05-.46-.08-.74-.11-.28-.03-.66-.04-1.14-.04h-1.91v5.21h2.17c.6,0,1.13-.06,1.59-.19.45-.13.83-.31,1.13-.54.3-.23.53-.51.68-.83.15-.32.23-.68.23-1.08Z"/>
          <path class="cls-2" d="M581.72,139.05c.13.34.21.61.24.81.03.2-.01.35-.13.45-.12.1-.33.16-.63.18-.3.02-.72.04-1.25.04s-.98,0-1.29-.02c-.31-.02-.54-.04-.7-.09s-.27-.1-.34-.18c-.07-.08-.12-.18-.16-.3l-1.41-3.69h-7.87l-1.33,3.59c-.04.13-.1.24-.17.33-.07.09-.18.16-.34.21-.16.05-.38.09-.66.11s-.66.03-1.12.03c-.5,0-.88-.01-1.17-.04-.28-.03-.48-.1-.58-.21s-.15-.26-.11-.46c.03-.2.11-.46.24-.79l6.46-16.3c.06-.16.14-.29.23-.39.09-.1.22-.17.41-.23s.45-.09.79-.1c.33-.01.78-.02,1.33-.02.64,0,1.14,0,1.52.02.38.01.67.05.88.1s.36.13.45.23c.09.1.17.25.24.43l6.48,16.29ZM572.1,125.57h-.02l-2.96,7.81h5.94l-2.96-7.81Z"/>
          <path class="cls-2" d="M602.05,130.98c0,1.69-.25,3.13-.75,4.32-.5,1.2-1.22,2.18-2.16,2.93-.94.76-2.08,1.31-3.42,1.67s-2.94.53-4.8.53h-5c-.36,0-.66-.09-.9-.28s-.36-.48-.36-.9v-16.02c0-.42.12-.72.36-.9s.54-.28.9-.28h5.37c1.87,0,3.45.19,4.75.57s2.4.95,3.29,1.7c.89.75,1.57,1.68,2.03,2.79.46,1.11.7,2.39.7,3.85ZM597.65,131.11c0-.87-.12-1.68-.35-2.43-.23-.75-.6-1.4-1.12-1.94s-1.17-.98-1.98-1.29c-.8-.31-1.86-.46-3.16-.46h-2.15v12.5h2.22c1.17,0,2.15-.13,2.95-.4.8-.26,1.47-.67,2-1.2.53-.54.93-1.2,1.2-2,.26-.8.4-1.72.4-2.78Z"/>
          <path class="cls-2" d="M621.93,139.05c.13.34.21.61.24.81.03.2-.01.35-.13.45-.12.1-.33.16-.63.18-.3.02-.72.04-1.25.04s-.98,0-1.29-.02c-.31-.02-.54-.04-.7-.09s-.27-.1-.34-.18c-.07-.08-.12-.18-.16-.3l-1.41-3.69h-7.87l-1.33,3.59c-.04.13-.1.24-.17.33-.07.09-.18.16-.34.21-.16.05-.38.09-.66.11s-.66.03-1.12.03c-.5,0-.88-.01-1.17-.04-.28-.03-.48-.1-.58-.21s-.15-.26-.11-.46c.03-.2.11-.46.24-.79l6.46-16.3c.06-.16.14-.29.23-.39.09-.1.22-.17.41-.23s.45-.09.79-.1c.33-.01.78-.02,1.33-.02.64,0,1.14,0,1.52.02.38.01.67.05.88.1s.36.13.45.23c.09.1.17.25.24.43l6.48,16.29ZM612.31,125.57h-.02l-2.96,7.81h5.94l-2.96-7.81Z"/>
          <path class="cls-2" d="M640.4,139.96c0,.11-.02.19-.06.26s-.15.13-.31.18c-.16.05-.4.08-.71.1-.31.02-.74.03-1.28.03-.45,0-.81,0-1.08-.03s-.48-.05-.64-.11c-.16-.05-.27-.12-.33-.2-.06-.08-.12-.18-.16-.29l-1.88-4.1c-.23-.46-.45-.88-.66-1.24-.22-.36-.46-.66-.72-.9-.26-.24-.57-.42-.91-.55-.35-.12-.74-.18-1.2-.18h-1.33v7c0,.09-.04.18-.11.26-.07.08-.19.14-.35.18s-.38.08-.65.11c-.27.03-.61.04-1.04.04s-.75-.01-1.03-.04c-.28-.03-.49-.07-.66-.11-.16-.05-.28-.11-.34-.18s-.1-.16-.1-.26v-16.69c0-.42.12-.72.36-.9s.54-.28.9-.28h5.42c.55,0,1,0,1.36.03.36.02.68.04.97.07.84.11,1.6.28,2.27.54s1.25.59,1.72,1c.47.41.83.9,1.08,1.46.25.56.37,1.21.37,1.94,0,.62-.09,1.18-.27,1.68-.18.51-.44.96-.79,1.36-.35.4-.77.74-1.28,1.04s-1.08.53-1.73.71c.31.13.61.29.88.48.27.19.53.42.78.69s.47.58.69.92c.22.35.43.74.63,1.17l1.76,3.62c.16.36.27.62.32.79s.08.3.08.39ZM634.92,127.49c0-.6-.16-1.12-.47-1.53-.31-.42-.83-.71-1.54-.88-.22-.05-.46-.08-.74-.11-.28-.03-.66-.04-1.14-.04h-1.91v5.21h2.17c.6,0,1.13-.06,1.59-.19.45-.13.83-.31,1.13-.54.3-.23.53-.51.68-.83.15-.32.23-.68.23-1.08Z"/>
          <path class="cls-2" d="M655.3,139.93c0,.09-.04.18-.11.26-.07.08-.19.14-.35.18s-.38.08-.65.11c-.27.03-.61.04-1.04.04s-.75-.01-1.03-.04c-.28-.03-.49-.07-.66-.11s-.28-.11-.35-.18c-.07-.08-.11-.16-.11-.26v-17.35c0-.09.04-.18.11-.26.07-.08.19-.14.36-.18.17-.05.39-.09.66-.11.27-.03.61-.04,1.02-.04s.77.01,1.04.04c.27.03.49.07.65.11.16.05.28.11.35.18.07.08.11.16.11.26v17.35Z"/>
          <path class="cls-2" d="M677.14,139.13c0,.22-.04.41-.13.58-.09.17-.2.31-.35.43s-.32.2-.52.25-.4.08-.61.08h-1.81c-.38,0-.7-.03-.98-.1-.27-.07-.53-.19-.76-.36-.23-.18-.46-.41-.67-.71-.22-.3-.46-.68-.73-1.16l-5.21-8.59c-.3-.51-.61-1.06-.92-1.65-.31-.59-.59-1.17-.84-1.72h-.03c.04.68.08,1.36.1,2.04s.03,1.38.03,2.1v9.61c0,.09-.03.18-.09.26s-.16.14-.31.19-.34.09-.59.12c-.25.03-.57.04-.96.04s-.69-.01-.94-.04c-.25-.03-.44-.07-.58-.12s-.24-.12-.29-.19-.08-.16-.08-.26v-16.52c0-.45.15-.78.45-1,.3-.22.66-.33,1.09-.33h2.28c.41,0,.76.03,1.04.09.28.06.53.16.75.31.22.14.43.34.62.59.19.25.39.56.6.93l4.08,6.72c.24.41.47.81.7,1.2.23.39.46.79.67,1.18.22.39.43.78.63,1.16s.4.76.6,1.14h.02c-.03-.66-.06-1.35-.07-2.07-.02-.72-.02-1.41-.02-2.06v-8.62c0-.09.03-.18.1-.26.06-.08.17-.14.32-.2.15-.06.35-.1.6-.12.25-.02.57-.04.96-.04.37,0,.67.01.92.04.25.02.44.06.57.12.14.06.23.12.28.2s.08.16.08.26v16.52Z"/>
          <path class="cls-2" d="M696.19,137.66c0,.24,0,.44-.02.6s-.04.31-.07.43c-.03.12-.08.22-.13.3-.05.08-.14.18-.26.29-.12.11-.35.25-.69.42-.34.17-.76.33-1.25.49-.49.16-1.05.29-1.68.39s-1.31.16-2.05.16c-1.43,0-2.73-.19-3.88-.58-1.16-.39-2.14-.97-2.95-1.74s-1.43-1.74-1.86-2.89c-.43-1.15-.65-2.5-.65-4.03s.24-2.95.71-4.16c.47-1.21,1.14-2.23,1.99-3.05.85-.82,1.88-1.45,3.07-1.88,1.19-.43,2.51-.64,3.94-.64.58,0,1.14.04,1.68.13.54.08,1.04.2,1.5.33.46.14.87.3,1.24.48s.62.33.77.46c.15.13.25.24.3.32s.1.19.13.33c.03.13.06.29.07.47s.02.4.02.67c0,.28-.01.53-.03.73s-.06.36-.11.48c-.05.12-.12.21-.19.27-.08.06-.16.08-.26.08-.16,0-.37-.08-.61-.25-.25-.17-.57-.35-.96-.55-.39-.2-.86-.39-1.41-.55s-1.2-.25-1.95-.25c-.83,0-1.57.15-2.23.45s-1.21.73-1.67,1.28c-.46.55-.81,1.22-1.04,2.01s-.36,1.67-.36,2.66c0,1.08.13,2.01.38,2.8.25.79.61,1.44,1.08,1.95.47.51,1.04.89,1.7,1.14.66.25,1.41.38,2.24.38.76,0,1.41-.08,1.96-.24.55-.16,1.02-.33,1.42-.52.39-.19.72-.36.97-.51.25-.15.45-.23.59-.23.11,0,.19.02.26.06s.12.11.16.23c.04.11.08.27.1.48s.03.48.03.82Z"/>
          <path class="cls-2" d="M703.8,138.39c0,.88-.17,1.47-.53,1.78-.35.3-.98.45-1.89.45s-1.53-.15-1.88-.45c-.35-.3-.52-.86-.52-1.7,0-.89.18-1.49.53-1.79.35-.3.98-.45,1.9-.45s1.52.15,1.86.45.52.87.52,1.71Z"/>
          <g>
            <path class="cls-2" d="M643.69,121.45s0,.02,0,.03c0,0-.02.02-.04.02s-.05,0-.08.01c-.04,0-.08,0-.15,0-.05,0-.09,0-.12,0-.03,0-.06,0-.07-.01-.02,0-.03-.01-.04-.02,0,0-.01-.02-.02-.03l-.21-.48c-.03-.05-.05-.1-.08-.14-.02-.04-.05-.08-.08-.11-.03-.03-.06-.05-.1-.06-.04-.01-.08-.02-.14-.02h-.15v.82s0,.02-.01.03c0,0-.02.02-.04.02-.02,0-.04,0-.07.01-.03,0-.07,0-.12,0s-.09,0-.12,0-.06,0-.07-.01c-.02,0-.03-.01-.04-.02,0,0-.01-.02-.01-.03v-1.95s.01-.08.04-.11.06-.03.1-.03h.62c.06,0,.11,0,.16,0,.04,0,.08,0,.11,0,.1.01.18.03.26.06.08.03.14.07.2.12s.09.11.12.17c.03.07.04.14.04.23,0,.07-.01.14-.03.2-.02.06-.05.11-.09.16-.04.05-.09.09-.15.12-.06.03-.12.06-.2.08.04.02.07.03.1.06.03.02.06.05.09.08s.05.07.08.11c.02.04.05.09.07.14l.2.42s.03.07.04.09c0,.02,0,.03,0,.05ZM643.06,119.99c0-.07-.02-.13-.05-.18-.04-.05-.09-.08-.18-.1-.02,0-.05,0-.08-.01s-.07,0-.13,0h-.22v.61h.25c.07,0,.13,0,.18-.02s.09-.04.13-.06c.03-.03.06-.06.08-.1.02-.04.03-.08.03-.13Z"/>
            <path class="cls-2" d="M642.67,122.57c-1.14,0-2.07-.94-2.07-2.09s.93-2.08,2.07-2.08,2.07.94,2.07,2.08-.93,2.09-2.07,2.09ZM642.67,118.77c-.94,0-1.71.77-1.71,1.72s.77,1.72,1.71,1.72,1.71-.77,1.71-1.72-.77-1.72-1.71-1.72Z"/>
          </g>
        </g>
      </g>
    </g>
  </g>
</svg>